<svg xmlns="http://www.w3.org/2000/svg" viewBox="0 0 800 500" fill="none">
  <!-- Desk surface -->
  <rect x="80" y="300" width="640" height="20" rx="4" fill="white" opacity="0.5"/>
  <rect x="100" y="320" width="8" height="80" rx="2" fill="white" opacity="0.3"/>
  <rect x="692" y="320" width="8" height="80" rx="2" fill="white" opacity="0.3"/>

  <!-- Monitor -->
  <rect x="240" y="100" width="320" height="190" rx="12" fill="white" opacity="0.4"/>
  <rect x="252" y="112" width="296" height="166" rx="6" fill="white" opacity="0.15"/>
  <!-- Monitor stand -->
  <rect x="370" y="290" width="60" height="12" rx="2" fill="white" opacity="0.35"/>
  <rect x="340" y="298" width="120" height="6" rx="3" fill="white" opacity="0.35"/>

  <!-- Screen content lines -->
  <rect x="275" y="140" width="180" height="4" rx="2" fill="white" opacity="0.2"/>
  <rect x="275" y="155" width="140" height="4" rx="2" fill="white" opacity="0.15"/>
  <rect x="275" y="170" width="200" height="4" rx="2" fill="white" opacity="0.2"/>
  <rect x="275" y="185" width="120" height="4" rx="2" fill="white" opacity="0.15"/>
  <rect x="275" y="205" width="100" height="20" rx="4" fill="white" opacity="0.12"/>

  <!-- Keyboard -->
  <rect x="290" y="330" width="220" height="50" rx="8" fill="white" opacity="0.3"/>
  <!-- Key rows -->
  <rect x="305" y="340" width="14" height="10" rx="2" fill="white" opacity="0.15"/>
  <rect x="323" y="340" width="14" height="10" rx="2" fill="white" opacity="0.15"/>
  <rect x="341" y="340" width="14" height="10" rx="2" fill="white" opacity="0.15"/>
  <rect x="359" y="340" width="14" height="10" rx="2" fill="white" opacity="0.15"/>
  <rect x="377" y="340" width="14" height="10" rx="2" fill="white" opacity="0.15"/>
  <rect x="395" y="340" width="14" height="10" rx="2" fill="white" opacity="0.15"/>
  <rect x="413" y="340" width="14" height="10" rx="2" fill="white" opacity="0.15"/>
  <rect x="431" y="340" width="14" height="10" rx="2" fill="white" opacity="0.15"/>
  <rect x="449" y="340" width="14" height="10" rx="2" fill="white" opacity="0.15"/>
  <rect x="467" y="340" width="14" height="10" rx="2" fill="white" opacity="0.15"/>
  <rect x="305" y="355" width="14" height="10" rx="2" fill="white" opacity="0.15"/>
  <rect x="323" y="355" width="14" height="10" rx="2" fill="white" opacity="0.15"/>
  <rect x="341" y="355" width="14" height="10" rx="2" fill="white" opacity="0.15"/>
  <rect x="359" y="355" width="14" height="10" rx="2" fill="white" opacity="0.15"/>
  <rect x="377" y="355" width="14" height="10" rx="2" fill="white" opacity="0.15"/>
  <rect x="395" y="355" width="14" height="10" rx="2" fill="white" opacity="0.15"/>
  <rect x="413" y="355" width="14" height="10" rx="2" fill="white" opacity="0.15"/>
  <rect x="431" y="355" width="14" height="10" rx="2" fill="white" opacity="0.15"/>
  <rect x="449" y="355" width="14" height="10" rx="2" fill="white" opacity="0.15"/>
  <rect x="467" y="355" width="14" height="10" rx="2" fill="white" opacity="0.15"/>
  <!-- Spacebar -->
  <rect x="350" y="370" width="100" height="6" rx="3" fill="white" opacity="0.12"/>

  <!-- Mouse -->
  <rect x="560" y="335" width="36" height="52" rx="18" fill="white" opacity="0.25"/>
  <rect x="576" y="340" width="2" height="12" rx="1" fill="white" opacity="0.15"/>

  <!-- Coffee mug -->
  <circle cx="160" cy="310" r="22" fill="white" opacity="0.2"/>
  <circle cx="160" cy="310" r="14" fill="white" opacity="0.1"/>
  <!-- Mug handle -->
  <path d="M182 300 C195 300 195 320 182 320" stroke="white" stroke-width="4" opacity="0.2" fill="none"/>

  <!-- Potted plant -->
  <rect x="640" y="260" width="30" height="36" rx="4" fill="white" opacity="0.2"/>
  <circle cx="655" cy="248" r="18" fill="white" opacity="0.15"/>
  <circle cx="642" cy="240" r="12" fill="white" opacity="0.12"/>
  <circle cx="668" cy="242" r="14" fill="white" opacity="0.12"/>
  <rect x="652" y="248" width="4" height="16" rx="1" fill="white" opacity="0.15"/>

  <!-- Notebook on left -->
  <rect x="110" y="330" width="80" height="55" rx="4" fill="white" opacity="0.2" transform="rotate(-5 150 357)"/>
  <rect x="125" y="342" width="50" height="3" rx="1" fill="white" opacity="0.12"/>
  <rect x="125" y="350" width="40" height="3" rx="1" fill="white" opacity="0.12"/>
  <rect x="125" y="358" width="45" height="3" rx="1" fill="white" opacity="0.12"/>
</svg>
